# xmcd CD database file
#
# Track frame offsets:
#	150
#	15637
#	29591
#	50222
#	69193
#	81896
#	95610
#	109283
#	123892
#	137577
#	150678
#	168728
#
# Disc length: 2430 seconds
#
# Revision: 0
# Processed by: cddbd v1.5.2PL0 Copyright (c) Steve Scherf et al.
# Submitted via: CDex 1.51
#
DISCID=a1097c0c
DTITLE=Johnny Fuller and The Phillip Walker Band - Fullers Blues
DYEAR=2015
DGENRE=Blues
TTITLE0=TinPan Alley
TTITLE1=Fools Paradise
TTITLE2=Strange Land
TTITLE3=1009 Blues
TTITLE4=You Got Me Whistling
TTITLE5=But Bruce
TTITLE6=Bad Luck Overtook Me
TTITLE7=Hard Luck Blues
TTITLE8=Crying Won't Make Me Stay
TTITLE9=Miss You So
TTITLE10=A Good Letting Alone
TTITLE11=Mercy, Mercy
EXTD=YEAR: 2015
EXTT0=
EXTT1=
EXTT2=
EXTT3=
EXTT4=
EXTT5=
EXTT6=
EXTT7=
EXTT8=
EXTT9=
EXTT10=
EXTT11=
PLAYORDER=
